<svg xmlns="http://www.w3.org/2000/svg" width="64" height="64" viewBox="0 0 64 64" role="img" aria-label="Kernelworx mark — popcorn bucket">
  <rect width="64" height="64" rx="12" fill="#1976d2"/>
  <g transform="translate(32 31.5) scale(1.28) translate(-32 -31.5)">
  <circle cx="20.5" cy="23" r="4" fill="#ffffff"/>
  <circle cx="26" cy="20.5" r="5" fill="#ffffff"/>
  <circle cx="32" cy="19.5" r="5.5" fill="#ffffff"/>
  <circle cx="38" cy="20.5" r="5" fill="#ffffff"/>
  <circle cx="43.5" cy="23" r="4" fill="#ffffff"/>
  <rect x="20" y="24" width="24" height="3.5" fill="#ffffff"/>
  <path d="M17 27h30l-4.5 22h-21z" fill="#ffffff"/>
  <path d="M21.25 27L24.25 49h1.5L22.75 27z" fill="#1976d2"/>
  <path d="M26.25 27L27.75 49h1.5L27.75 27z" fill="#1976d2"/>
  <path d="M31.25 27h1.5v22h-1.5z" fill="#1976d2"/>
  <path d="M36.25 27L34.75 49h1.5L37.75 27z" fill="#1976d2"/>
  <path d="M41.25 27L38.25 49h1.5L42.75 27z" fill="#1976d2"/>
  </g>
</svg>
