<svg xmlns="http://www.w3.org/2000/svg" width="244" height="64" viewBox="0 0 244 64" role="img" aria-label="Kernelworx">
  <rect width="64" height="64" rx="12" fill="#1976d2"/>
  <g transform="translate(32 31.5) scale(1.28) translate(-32 -31.5)">
  <circle cx="20.5" cy="23" r="4" fill="#ffffff"/>
  <circle cx="26" cy="20.5" r="5" fill="#ffffff"/>
  <circle cx="32" cy="19.5" r="5.5" fill="#ffffff"/>
  <circle cx="38" cy="20.5" r="5" fill="#ffffff"/>
  <circle cx="43.5" cy="23" r="4" fill="#ffffff"/>
  <rect x="20" y="24" width="24" height="3.5" fill="#ffffff"/>
  <path d="M17 27h30l-4.5 22h-21z" fill="#ffffff"/>
  <path d="M21.25 27L24.25 49h1.5L22.75 27z" fill="#1976d2"/>
  <path d="M26.25 27L27.75 49h1.5L27.75 27z" fill="#1976d2"/>
  <path d="M31.25 27h1.5v22h-1.5z" fill="#1976d2"/>
  <path d="M36.25 27L34.75 49h1.5L37.75 27z" fill="#1976d2"/>
  <path d="M41.25 27L38.25 49h1.5L42.75 27z" fill="#1976d2"/>
  </g>
  <!-- Wordmark: Bricolage Grotesque 700 (opsz 32), outlined so it renders
       identically in <img> contexts where web fonts cannot load. -->
  <path d="M79.28 42.0V20.88H84.464V29.904Q86.0 29.392 87.168 28.448Q88.336 27.503999999999998 89.168 26.287999999999997Q90.0 25.072 90.544 23.68Q91.088 22.288 91.376 20.88H97.2Q96.816 22.704 96.096 24.32Q95.376 25.936 94.28800000000001 27.28Q93.2 28.624000000000002 91.75999999999999 29.664Q90.32 30.704 88.496 31.375999999999998V31.631999999999998Q90.44800000000001 31.472 91.72800000000001 31.872Q93.008 32.272 93.80799999999999 33.04Q94.608 33.808 95.072 34.784Q95.536 35.76 95.856 36.752L97.55199999999999 42.0H91.792L90.576 37.296Q90.288 36.144 89.75999999999999 35.424Q89.232 34.704 88.4 34.384Q87.568 34.064 86.288 34.064H84.464V42.0Z M106.62 42.448Q104.22000000000001 42.448 102.60400000000001 41.760000000000005Q100.98800000000001 41.072 99.99600000000001 39.872Q99.004 38.672 98.572 37.135999999999996Q98.14 35.6 98.14 33.903999999999996Q98.14 32.08 98.60400000000001 30.415999999999997Q99.06800000000001 28.752 100.04400000000001 27.456Q101.02000000000001 26.16 102.572 25.408Q104.12400000000001 24.656 106.30000000000001 24.656Q108.47600000000001 24.656 110.02800000000002 25.408Q111.58000000000001 26.16 112.50800000000001 27.503999999999998Q113.436 28.848 113.708 30.608Q113.98 32.368 113.62800000000001 34.416L101.37200000000001 34.608V31.792L109.66000000000001 31.631999999999998L108.988 33.263999999999996Q109.18 31.792 108.94 30.784Q108.7 29.776 108.06 29.247999999999998Q107.42 28.72 106.30000000000001 28.72Q105.11600000000001 28.72 104.412 29.328Q103.70800000000001 29.936 103.42000000000002 31.04Q103.132 32.144 103.132 33.647999999999996Q103.132 36.24 103.99600000000001 37.424Q104.86000000000001 38.608 106.65200000000002 38.608Q107.42 38.608 107.932 38.416Q108.444 38.224 108.76400000000001 37.855999999999995Q109.084 37.488 109.212 36.96Q109.34 36.432 109.308 35.76L114.04400000000001 36.016Q114.14000000000001 37.072 113.83600000000001 38.192Q113.53200000000001 39.312 112.70000000000002 40.272Q111.86800000000001 41.232 110.38000000000001 41.84Q108.89200000000001 42.448 106.62 42.448Z M115.272 42.0V32.816V25.104H119.75200000000001V31.823999999999998H120.00800000000001Q120.2 29.136 120.76 27.584Q121.32000000000001 26.032 122.168 25.375999999999998Q123.016 24.72 124.072 24.72Q124.64800000000001 24.72 125.272 24.88Q125.896 25.04 126.504 25.392L126.248 31.152Q125.54400000000001 30.736 124.87200000000001 30.528Q124.2 30.32 123.592 30.32Q122.56800000000001 30.32 121.864 30.896Q121.16000000000001 31.472 120.792 32.592Q120.424 33.712 120.424 35.312V42.0Z M127.572 42.0V32.432V25.104H131.956V31.984H132.212Q132.404 29.488 133.04399999999998 27.872Q133.684 26.256 134.868 25.456Q136.052 24.656 137.876 24.656Q140.62800000000001 24.656 142.02 26.48Q143.412 28.304000000000002 143.412 31.92V42.0H138.228V32.592Q138.228 30.863999999999997 137.7 30.0Q137.172 29.136 136.02 29.136Q135.06 29.136 134.324 29.808Q133.588 30.48 133.172 31.984Q132.756 33.488 132.756 36.016V42.0Z M153.088 42.448Q150.688 42.448 149.072 41.760000000000005Q147.456 41.072 146.464 39.872Q145.472 38.672 145.04000000000002 37.135999999999996Q144.608 35.6 144.608 33.903999999999996Q144.608 32.08 145.072 30.415999999999997Q145.536 28.752 146.512 27.456Q147.488 26.16 149.04 25.408Q150.59199999999998 24.656 152.768 24.656Q154.944 24.656 156.49599999999998 25.408Q158.048 26.16 158.976 27.503999999999998Q159.904 28.848 160.176 30.608Q160.448 32.368 160.096 34.416L147.84 34.608V31.792L156.128 31.631999999999998L155.456 33.263999999999996Q155.648 31.792 155.40800000000002 30.784Q155.168 29.776 154.52800000000002 29.247999999999998Q153.888 28.72 152.768 28.72Q151.584 28.72 150.88 29.328Q150.176 29.936 149.88799999999998 31.04Q149.6 32.144 149.6 33.647999999999996Q149.6 36.24 150.464 37.424Q151.328 38.608 153.12 38.608Q153.888 38.608 154.4 38.416Q154.912 38.224 155.232 37.855999999999995Q155.552 37.488 155.68 36.96Q155.808 36.432 155.776 35.76L160.512 36.016Q160.608 37.072 160.304 38.192Q160.0 39.312 159.168 40.272Q158.33599999999998 41.232 156.84799999999998 41.84Q155.35999999999999 42.448 153.088 42.448Z M161.74 42.0V19.599999999999998H166.92400000000004V42.0Z" fill="#333333"/>
  <path d="M172.33200000000002 42.0 168.33200000000002 25.104H173.836L175.788 37.647999999999996H175.94800000000004L178.12400000000002 25.104H183.85200000000003L185.96400000000003 37.647999999999996H186.12400000000002L188.23600000000002 25.104H193.38800000000003L189.45200000000003 42.0H182.70000000000002L180.97200000000004 30.608H180.812L179.02 42.0Z M202.16800000000003 42.448Q199.73600000000005 42.448 197.84800000000004 41.472Q195.96000000000004 40.496 194.90400000000005 38.528000000000006Q193.84800000000004 36.56 193.84800000000004 33.584Q193.84800000000004 30.48 194.95200000000006 28.512Q196.05600000000004 26.544 197.96000000000004 25.6Q199.86400000000003 24.656 202.26400000000004 24.656Q204.76000000000005 24.656 206.63200000000003 25.631999999999998Q208.50400000000002 26.608 209.54400000000004 28.576Q210.58400000000003 30.544 210.58400000000003 33.552Q210.58400000000003 36.656 209.48000000000002 38.623999999999995Q208.37600000000003 40.592 206.47200000000004 41.519999999999996Q204.56800000000004 42.448 202.16800000000003 42.448ZM202.29600000000005 38.64Q203.28800000000004 38.64 203.96000000000004 38.08Q204.63200000000003 37.519999999999996 204.98400000000004 36.432Q205.33600000000004 35.344 205.33600000000004 33.84Q205.33600000000004 32.176 204.95200000000006 31.04Q204.56800000000004 29.904 203.84800000000004 29.296Q203.12800000000004 28.688 202.10400000000004 28.688Q201.14400000000003 28.688 200.47200000000004 29.247999999999998Q199.80000000000004 29.808 199.44800000000004 30.896Q199.09600000000003 31.984 199.09600000000003 33.519999999999996Q199.09600000000003 35.952 199.94400000000002 37.296Q200.79200000000003 38.64 202.29600000000005 38.64Z M211.94 42.0V32.816V25.104H216.42000000000002V31.823999999999998H216.67600000000002Q216.86800000000002 29.136 217.428 27.584Q217.988 26.032 218.836 25.375999999999998Q219.68400000000003 24.72 220.74 24.72Q221.316 24.72 221.94 24.88Q222.56400000000002 25.04 223.17200000000003 25.392L222.916 31.152Q222.21200000000002 30.736 221.54000000000002 30.528Q220.86800000000002 30.32 220.26000000000002 30.32Q219.23600000000002 30.32 218.532 30.896Q217.828 31.472 217.46 32.592Q217.092 33.712 217.092 35.312V42.0Z M223.216 42.0 228.52800000000002 33.519999999999996 223.28000000000003 25.104H229.29600000000002L231.76000000000002 30.576H231.92000000000002L234.32000000000002 25.104H240.27200000000002L235.18400000000003 33.519999999999996L240.336 42.0H234.22400000000002L231.88800000000003 36.624H231.76000000000002L229.16800000000003 42.0Z" fill="#1976d2"/>
</svg>
