<svg xmlns="http://www.w3.org/2000/svg" width="261" height="64" viewBox="0 0 261 64" role="img" aria-label="KernelWorx">
  <rect width="64" height="64" rx="12" fill="#1976d2"/>
  <g transform="translate(32 31.5) scale(1.28) translate(-32 -31.5)">
  <circle cx="20.5" cy="23" r="4" fill="#ffffff"/>
  <circle cx="26" cy="20.5" r="5" fill="#ffffff"/>
  <circle cx="32" cy="19.5" r="5.5" fill="#ffffff"/>
  <circle cx="38" cy="20.5" r="5" fill="#ffffff"/>
  <circle cx="43.5" cy="23" r="4" fill="#ffffff"/>
  <rect x="20" y="24" width="24" height="3.5" fill="#ffffff"/>
  <path d="M17 27h30l-4.5 22h-21z" fill="#ffffff"/>
  <path d="M21.25 27L24.25 49h1.5L22.75 27z" fill="#1976d2"/>
  <path d="M26.25 27L27.75 49h1.5L27.75 27z" fill="#1976d2"/>
  <path d="M31.25 27h1.5v22h-1.5z" fill="#1976d2"/>
  <path d="M36.25 27L34.75 49h1.5L37.75 27z" fill="#1976d2"/>
  <path d="M41.25 27L38.25 49h1.5L42.75 27z" fill="#1976d2"/>
  </g>
  <!-- Wordmark: Bricolage Grotesque 700 (opsz 32), outlined so it renders
       identically in <img> contexts where web fonts cannot load. -->
  <g transform="translate(79.28 42.0) scale(0.032000 -0.032000)" fill="#4b4b4b">
    <path d="M66.7464158795774 0V660H210.60937693715096V366.11827014759183Q261.712842669338 385.87211729958653 305.36001853458583 417.93161858431995Q349.0071943998337 449.99111986905336 383.098830210045 489.5785212442279Q417.1904660202563 529.1659226194024 440.5320277158171 572.8486768938601Q463.8735894113779 616.5314311683178 474.8340425044298 660H638.9584621861577Q625.6329118050635 609.0949358269572 598.1486579068005 560.0868942029774Q570.6644040085375 511.0788525789976 532.7039857916534 468.1145901158452Q494.74356757476926 425.1503276526928 450.49748230166733 392.0551593117416Q406.2513970285654 358.9599909707904 359.19580901786685 339.3727697953582V326.4601421058178Q408.88643779605627 327.28550647571683 446.4183136485517 316.1028888039291Q483.95018950104713 304.92027113214135 511.9423774853349 282.34079439751804Q539.9345654696226 259.7613176628947 560.2005651574582 226.94367375597358Q580.4665648452938 194.12602984905243 596.1333448626101 151.00675116851926L648.7916531041265 0H486.38138980045915L451.56422109529376 124.3638576939702Q437.96871415525675 171.25330800935626 416.02002122811973 199.75375124067068Q394.0713283009827 228.2541944719851 359.0629604291171 241.5877901110798Q324.05459255725145 254.92138575017452 268.7840285524726 254.92138575017452H210.60937693715096V0Z" transform="translate(0 0)"/>
    <path d="M304.8091110959649 -13.706313844770193Q238.3886670321226 -13.706313844770193 188.01977854035795 4.797669909894466Q137.65089004859328 23.301653664559126 103.34942384809256 58.12308877520263Q69.04795764759183 92.94452388584614 51.47263469360769 142.1905176062137Q33.89731173962355 191.43651132658124 33.89731173962355 252.96021912619472Q33.89731173962355 314.15063282847404 51.020266093313694 366.4323175828904Q68.14322044700384 418.71400233730674 101.27009606733918 457.42429194413126Q134.39697168767452 496.1345815509558 183.18649897538126 517.5671076700091Q231.976026263088 538.9996337890625 294.67426941916347 538.9996337890625Q355.78501819446683 538.9996337890625 402.6379920113832 518.6981501504779Q449.4909658282995 498.3966665118933 480.27264259010553 459.22618684358895Q511.05431935191154 420.0557071752846 524.7448086217046 364.23045034334064Q538.4352978914976 308.40519351139665 532.7448972687125 237.19892471656203L126.7767963707447 233.4449424147606V312.6585363969207L444.15876891463995 316.1744205541909L400.12774173915386 274.59506807103753Q406.2705189548433 326.38109770417213 393.5243726465851 360.10358780249953Q380.77822633832693 393.82607790082693 355.0994398333132 410.24689326249063Q329.4206533282995 426.66770862415433 295.8170756995678 426.66770862415433Q257.46751234307885 426.66770862415433 229.52281915582716 406.377868168056Q201.57812596857548 386.0880277119577 186.78830949030817 348.15521240234375Q171.99849301204085 310.2223970927298 171.99849301204085 256.49189734086394Q171.99849301204085 172.07093883678317 207.72489202581346 132.07454039528966Q243.45129103958607 92.07814195379615 304.78536842018366 92.07814195379615Q332.87288895994425 92.07814195379615 352.0080038420856 99.59802948497236Q371.14311872422695 107.11791701614857 383.5361240953207 119.43151322752237Q395.92912946641445 131.74510943889618 402.75859820842743 147.45954047515988Q409.5880669504404 163.1739715114236 412.73888579010963 179.52337065339088L539.522776287049 156.36498829722404Q533.6021069735289 119.8887498639524 517.2846265528351 88.95622519776225Q500.96714613214135 58.0237005315721 472.54257952980697 35.015803502872586Q444.1180129274726 12.007906474173069 402.76101829856634 -0.849203685298562Q361.4040236696601 -13.706313844770193 304.8091110959649 -13.706313844770193Z" transform="translate(648 0)"/>
    <path d="M60.38133457675576 0V258.7228374108672L60.301958840340376 525.2536320760846H180.87981160357594L180.13339862972498 337.72153823822737H197.35550362616777Q204.62540205568075 408.3324643075466 223.62142629362643 452.16987222246826Q242.6174505315721 496.0072801373899 276.12529015913606 516.6741117443889Q309.6331297867 537.340943351388 358.1805482916534 537.340943351388Q368.87108696997166 537.340943351388 381.16878085769713 535.67822265625Q393.4664747454226 534.015501961112 408.3316199891269 529.4757501520216L402.2284855917096 375.64475359395146Q385.41108582541347 383.5018412284553 367.26833912730217 386.7994501031935Q349.1255924291909 390.09705897793174 334.3796037957072 390.09705897793174Q296.4430372454226 390.09705897793174 269.1374521404505 371.76339576393366Q241.83186703547835 353.4297325499356 225.77623397484422 318.2864183690399Q209.72060091421008 283.1431041881442 204.5141010582447 232.46811106428504V0Z" transform="translate(1219 0)"/>
    <path d="M60.38133457675576 0V311.1504119336605L60.301958840340376 525.2536320760846H179.18146236240864L177.80014667659998 353.4593893364072H194.89525252953172Q206.48256380483508 416.01517353206873 229.60557919368148 457.1978268083185Q252.72859458252788 498.38048008456826 289.7166912741959 518.6900569368154Q326.70478796586394 538.9996337890625 378.0301654152572 538.9996337890625Q468.0855514295399 538.9996337890625 514.5338461752981 476.2457234207541Q560.9821409210563 413.49181305244565 560.9821409210563 280.62715753912926V0H416.5239650197327V264.8894226998091Q416.5239650197327 344.09609113261104 393.43255881778896 380.85421995073557Q370.3411526158452 417.6123487688601 324.0948195680976 417.6123487688601Q285.1500442735851 417.6123487688601 258.6140415240079 393.0605163574219Q232.07803877443075 368.50868394598365 218.33182198554277 325.22652180865407Q204.5856051966548 281.9443596713245 204.07760862261057 224.71368262544274V0Z" transform="translate(1643 0)"/>
    <path d="M304.8091110959649 -13.706313844770193Q238.3886670321226 -13.706313844770193 188.01977854035795 4.797669909894466Q137.65089004859328 23.301653664559126 103.34942384809256 58.12308877520263Q69.04795764759183 92.94452388584614 51.47263469360769 142.1905176062137Q33.89731173962355 191.43651132658124 33.89731173962355 252.96021912619472Q33.89731173962355 314.15063282847404 51.020266093313694 366.4323175828904Q68.14322044700384 418.71400233730674 101.27009606733918 457.42429194413126Q134.39697168767452 496.1345815509558 183.18649897538126 517.5671076700091Q231.976026263088 538.9996337890625 294.67426941916347 538.9996337890625Q355.78501819446683 538.9996337890625 402.6379920113832 518.6981501504779Q449.4909658282995 498.3966665118933 480.27264259010553 459.22618684358895Q511.05431935191154 420.0557071752846 524.7448086217046 364.23045034334064Q538.4352978914976 308.40519351139665 532.7448972687125 237.19892471656203L126.7767963707447 233.4449424147606V312.6585363969207L444.15876891463995 316.1744205541909L400.12774173915386 274.59506807103753Q406.2705189548433 326.38109770417213 393.5243726465851 360.10358780249953Q380.77822633832693 393.82607790082693 355.0994398333132 410.24689326249063Q329.4206533282995 426.66770862415433 295.8170756995678 426.66770862415433Q257.46751234307885 426.66770862415433 229.52281915582716 406.377868168056Q201.57812596857548 386.0880277119577 186.78830949030817 348.15521240234375Q171.99849301204085 310.2223970927298 171.99849301204085 256.49189734086394Q171.99849301204085 172.07093883678317 207.72489202581346 132.07454039528966Q243.45129103958607 92.07814195379615 304.78536842018366 92.07814195379615Q332.87288895994425 92.07814195379615 352.0080038420856 99.59802948497236Q371.14311872422695 107.11791701614857 383.5361240953207 119.43151322752237Q395.92912946641445 131.74510943889618 402.75859820842743 147.45954047515988Q409.5880669504404 163.1739715114236 412.73888579010963 179.52337065339088L539.522776287049 156.36498829722404Q533.6021069735289 119.8887498639524 517.2846265528351 88.95622519776225Q500.96714613214135 58.0237005315721 472.54257952980697 35.015803502872586Q444.1180129274726 12.007906474173069 402.76101829856634 -0.849203685298562Q361.4040236696601 -13.706313844770193 304.8091110959649 -13.706313844770193Z" transform="translate(2257 0)"/>
    <path d="M60.38133457675576 0V710.3644259013236H202.29989963024855V0Z" transform="translate(2828 0)"/>
  </g>
  <g transform="translate(79.28 42.0) scale(0.032000 -0.032000)" fill="#1976d2">
    <path d="M168.8264600969851 0 21.047947473824024 660H177.51384383812547L275.0470421202481 126.244359575212H284.3564743772149L397.6510251984 660H578.1644679494202L692.8081229105592 126.244359575212H702.0778672993183L799.7698650099337 660H948.2280409112573L799.0526307150722 0H598.0554964616895L489.5704738087952 531.0968439020216H481.53084697574377L373.3155658058822 0Z" transform="translate(3091 0)"/>
    <path d="M299.4442739337683 -13.706313844770193Q221.22225903719664 -13.706313844770193 161.42874944768846 17.40879143588245Q101.63523985818028 48.52389671653509 67.76627579890192 110.15481712669134Q33.89731173962355 171.7857375368476 33.89731173962355 263.4839937724173Q33.89731173962355 356.53151109442115 68.36154513806105 417.5711379274726Q102.82577853649855 478.61076476052403 162.91291324608028 508.80519927479327Q223.000047955662 538.9996337890625 299.4203801229596 538.9996337890625Q377.49153112992644 538.9996337890625 437.48344300314784 508.03533935546875Q497.47535487636924 477.071044921875 531.4991120845079 415.73773193359375Q565.5228692926466 354.4044189453125 565.5228692926466 262.12675500288606Q565.5228692926466 168.1507418192923 530.6539197657257 106.75000799261034Q495.7849702388048 45.349274165928364 435.38038417324424 15.821480160579085Q374.97579810768366 -13.706313844770193 299.4442739337683 -13.706313844770193ZM303.75373816117644 93.18922496959567Q341.80174085870385 93.18922496959567 367.81000264547765 111.47512962669134Q393.81826443225145 129.761034283787 407.2867242731154 166.03512064553797Q420.75518411397934 202.30920700728893 420.75518411397934 254.03965880349278Q420.75518411397934 308.9208684042096 406.37006777897477 347.2425462026149Q391.9849514439702 385.5642240010202 364.4330340195447 406.2350153848529Q336.88111659511924 426.9058067686856 295.8014066182077 426.9058067686856Q258.7137160524726 426.9058067686856 232.30465940386057 408.7310250904411Q205.89560275524855 390.55624341219664 192.34379940852523 354.4131239634007Q178.7919960618019 318.2700045146048 178.7919960618019 265.4046180360019Q178.7919960618019 181.63440135121346 211.77256338857114 137.41181316040456Q244.75313071534038 93.18922496959567 303.75373816117644 93.18922496959567Z" transform="translate(4034 0)"/>
    <path d="M60.38133457675576 0V258.7228374108672L60.301958840340376 525.2536320760846H180.87981160357594L180.13339862972498 337.72153823822737H197.35550362616777Q204.62540205568075 408.3324643075466 223.62142629362643 452.16987222246826Q242.6174505315721 496.0072801373899 276.12529015913606 516.6741117443889Q309.6331297867 537.340943351388 358.1805482916534 537.340943351388Q368.87108696997166 537.340943351388 381.16878085769713 535.67822265625Q393.4664747454226 534.015501961112 408.3316199891269 529.4757501520216L402.2284855917096 375.64475359395146Q385.41108582541347 383.5018412284553 367.26833912730217 386.7994501031935Q349.1255924291909 390.09705897793174 334.3796037957072 390.09705897793174Q296.4430372454226 390.09705897793174 269.1374521404505 371.76339576393366Q241.83186703547835 353.4297325499356 225.77623397484422 318.2864183690399Q209.72060091421008 283.1431041881442 204.5141010582447 232.46811106428504V0Z" transform="translate(4633 0)"/>
    <path d="M12.230486672371626 0 185.16708228737116 262.6982271708548 12.762148901820183 525.2536320760846H178.72800021618605L272.93549988791347 331.6420506052673H287.9273492731154L381.27765522524714 525.2536320760846H546.8069981187582L375.1322752945125 262.6982271708548L548.6721564419568 0H382.61897786706686L287.68925112858415 194.32584393396974H272.93549988791347L178.43442014604807 0Z" transform="translate(5067 0)"/>
  </g>
</svg>
